<svg width="760" height="760" viewBox="0 0 760 760" fill="none" xmlns="http://www.w3.org/2000/svg">
<defs>
  <linearGradient id="bgA" x1="148" y1="116" x2="620" y2="644" gradientUnits="userSpaceOnUse">
    <stop stop-color="#f7faf9"/>
    <stop offset="1" stop-color="#e5f0ed"/>
  </linearGradient>
  <linearGradient id="body" x1="320" y1="248" x2="520" y2="584" gradientUnits="userSpaceOnUse">
    <stop stop-color="#f7faf9"/>
    <stop offset="1" stop-color="#e5f0ed"/>
  </linearGradient>
  <linearGradient id="accent" x1="292" y1="262" x2="450" y2="460" gradientUnits="userSpaceOnUse">
    <stop stop-color="#51a8b1"/>
    <stop offset="1" stop-color="#3b8994"/>
  </linearGradient>
  <filter id="ds" x="170" y="164" width="430" height="484" filterUnits="userSpaceOnUse" color-interpolation-filters="sRGB">
    <feFlood flood-opacity="0" result="BackgroundImageFix"/>
    <feColorMatrix in="SourceAlpha" type="matrix" values="0 0 0 0 0 0 0 0 0 0 0 0 0 0 0 0 0 0 127 0" result="hardAlpha"/>
    <feOffset dy="22"/>
    <feGaussianBlur stdDeviation="18"/>
    <feComposite in2="hardAlpha" operator="out"/>
    <feColorMatrix type="matrix" values="0 0 0 0 0.113725 0 0 0 0 0.172549 0 0 0 0 0.164706 0 0 0 0.22 0"/>
    <feBlend mode="normal" in2="BackgroundImageFix" result="effect1_dropShadow_1_1"/>
    <feBlend mode="normal" in="SourceGraphic" in2="effect1_dropShadow_1_1" result="shape"/>
  </filter>
</defs>

<circle cx="376" cy="378" r="292" fill="url(#bgA)"/>
<circle cx="562" cy="224" r="82" fill="#e5f0ed" fill-opacity="0.72"/>
<circle cx="224" cy="542" r="86" fill="#d7e4e0" fill-opacity="0.75"/>

<g filter="url(#ds)">
  <rect x="250" y="214" width="272" height="408" rx="52" fill="url(#body)"/>
  <rect x="272" y="244" width="228" height="160" rx="26" fill="#1d2c2a"/>
  <rect x="286" y="258" width="200" height="132" rx="20" fill="url(#accent)" fill-opacity="0.95"/>
  <rect x="282" y="416" width="208" height="88" rx="20" fill="#f4f7f6"/>
  <rect x="300" y="438" width="90" height="14" rx="7" fill="#c9d9d4"/>
  <rect x="300" y="460" width="138" height="10" rx="5" fill="#d7e4e0"/>
  <rect x="410" y="436" width="60" height="36" rx="10" fill="#ffffff"/>
  <circle cx="440" cy="454" r="11" fill="#51a8b1"/>
  <rect x="320" y="524" width="128" height="56" rx="16" fill="#ffffff"/>
  <rect x="328" y="534" width="72" height="12" rx="6" fill="#d7e4e0"/>
  <rect x="328" y="552" width="94" height="10" rx="5" fill="#c9d9d4"/>
</g>

<rect x="516" y="318" width="22" height="182" rx="11" fill="#e5f0ed"/>
<rect x="520" y="298" width="14" height="28" rx="7" fill="#d7e4e0"/>
<rect x="516" y="490" width="44" height="22" rx="11" fill="#e5f0ed"/>
<circle cx="538" cy="524" r="14" fill="#f7faf9" stroke="#d7e4e0" stroke-width="4"/>
<circle cx="496" cy="524" r="18" fill="#f7faf9" stroke="#c9d9d4" stroke-width="5"/>
<circle cx="452" cy="524" r="18" fill="#f7faf9" stroke="#c9d9d4" stroke-width="5"/>

<path d="M354 290V350" stroke="#e5f0ed" stroke-width="12" stroke-linecap="round"/>
<path d="M324 320H384" stroke="#e5f0ed" stroke-width="12" stroke-linecap="round"/>

<ellipse cx="388" cy="636" rx="168" ry="26" fill="#d7e4e0" fill-opacity="0.38"/>
</svg>
